<svg width="18" height="18" viewBox="0 0 18 18" fill="none" xmlns="http://www.w3.org/2000/svg">
<path fill-rule="evenodd" clip-rule="evenodd" d="M2.57453 7.72064C2.57453 6.35554 3.11681 5.04636 4.08208 4.08109C5.04735 3.11583 6.35653 2.57355 7.72163 2.57355C9.08672 2.57355 10.3959 3.11583 11.3612 4.08109C12.3264 5.04636 12.8687 6.35554 12.8687 7.72064C12.8687 9.08573 12.3264 10.3949 11.3612 11.3602C10.3959 12.3254 9.08672 12.8677 7.72163 12.8677C6.35653 12.8677 5.04735 12.3254 4.08208 11.3602C3.11681 10.3949 2.57453 9.08573 2.57453 7.72064ZM7.72163 1.45999e-07C6.50653 -0.000154914 5.30856 0.28649 4.22513 0.836623C3.14171 1.38676 2.20342 2.18484 1.4866 3.16597C0.769773 4.1471 0.294643 5.28357 0.0998527 6.48295C-0.0949379 7.68233 -0.00388926 8.91075 0.365594 10.0683C0.735076 11.2259 1.37256 12.2799 2.2262 13.1446C3.07984 14.0093 4.12552 14.6604 5.27821 15.0448C6.4309 15.4292 7.65805 15.5361 8.85984 15.3568C10.0616 15.1775 11.2041 14.7171 12.1945 14.013L15.8193 17.6378C16.062 17.8722 16.387 18.0019 16.7244 17.999C17.0618 17.996 17.3845 17.8607 17.6231 17.6221C17.8617 17.3835 17.997 17.0608 18 16.7234C18.0029 16.386 17.8732 16.061 17.6388 15.8183L14.0152 12.1947C14.8366 11.0397 15.3241 9.68084 15.4244 8.2671C15.5247 6.85336 15.2339 5.43928 14.584 4.17983C13.934 2.92037 12.9498 1.86413 11.7394 1.12686C10.5289 0.389584 9.13892 -0.000275435 7.72163 1.45999e-07Z" fill="#2859C5"/>
</svg>
